<svg version="1.0" xmlns="http://www.w3.org/2000/svg"
 width="512.000000pt" height="512.000000pt" viewBox="0 0 512.000000 512.000000"
 preserveAspectRatio="xMidYMid meet">
<metadata>
Created by potrace 1.16, written by Peter Selinger 2001-2019
</metadata>
<g transform="translate(0.000000,512.000000) scale(0.100000,-0.100000)"
fill="#000000" stroke="none">
<path d="M2358 5055 c-384 -63 -732 -321 -911 -675 -229 -454 -143 -1032 210
-1401 177 -185 418 -317 659 -363 l69 -13 -90 -7 c-184 -15 -416 -66 -616
-135 -733 -253 -1292 -801 -1522 -1494 -42 -124 -81 -309 -96 -449 -12 -107
-14 -334 -5 -415 l7 -53 2498 0 2497 0 8 77 c18 201 -11 510 -71 730 -248 922
-1117 1626 -2143 1736 -114 13 -116 13 -64 20 71 10 243 67 323 107 358 179
610 522 675 918 19 117 14 338 -11 452 -103 469 -475 844 -942 951 -117 27
-355 34 -475 14z m380 -331 c187 -38 326 -115 467 -258 138 -140 212 -274 251
-459 19 -90 18 -269 -2 -364 -87 -420 -454 -722 -880 -724 -262 -1 -468 82
-653 264 -113 111 -184 226 -237 387 -26 80 -28 96 -28 255 -1 199 9 246 84
401 88 182 221 320 395 411 86 44 186 80 262 93 84 14 260 11 341 -6z m152
-2470 c419 -62 790 -221 1109 -473 420 -330 693 -820 736 -1319 l8 -82 -2182
0 -2181 0 0 38 c0 55 27 220 50 314 127 494 453 923 920 1211 292 179 672 300
1045 331 95 8 390 -4 495 -20z"/>
</g>
</svg>
