<svg version="1.1" id="joom" xmlns="http://www.w3.org/2000/svg" xmlns:xlink="http://www.w3.org/1999/xlink" x="0px" y="0px"
	 viewBox="0 0 652 652" style="enable-background:new 0 0 652 652;" xml:space="preserve">
<style type="text/css">
	.st0{fill:#3D3F56;}
	.st1{fill:#F64343;}
</style>
<path class="st0" d="M104,346.9c0,20.1-16.2,36.4-36.3,36.4v-86.3c0-20.1,16.2-36.4,36.3-36.4V346.9z"/>
<circle class="st1" cx="38.4" cy="365.2" r="18.1"/>
<path class="st0" d="M216.1,278.1c0-2.4,1-4.7,2.7-6.4c1.7-1.8,4.1-2.8,6.6-2.7c2.4,0,4.7,0.9,6.4,2.7c1.7,1.7,2.7,4,2.7,6.4v67.5
	c0.1,8.9-3.4,17.4-9.8,23.6c-6.2,6.4-14.7,9.9-23.6,9.8c-2.4,0-4.7-0.9-6.4-2.7c-1.8-1.6-2.7-4-2.7-6.4c0-2.4,1-4.7,2.7-6.4
	c1.6-1.8,4-2.7,6.4-2.7c4,0.1,7.9-1.6,10.7-4.5c2.8-2.8,4.4-6.7,4.3-10.7C216.1,345.5,216.1,278.1,216.1,278.1z M307.6,378.9
	c-14.6,0.2-28.7-5.6-38.9-16.2c-10.5-10.2-16.4-24.2-16.2-38.9c-0.2-14.7,5.6-28.8,16.2-39c10.2-10.5,24.2-16.3,38.9-16.1
	c14.6-0.2,28.7,5.6,39,16.1c10.5,10.2,16.3,24.3,16.1,39c0.2,14.6-5.6,28.7-16.1,38.9C336.4,373.3,322.3,379.1,307.6,378.9z
	 M307.6,286.9c-9.8-0.2-19.2,3.8-26.1,10.8c-7.1,6.8-11,16.3-10.9,26.1c-0.1,9.8,3.8,19.3,10.9,26.1c14.3,14.4,37.6,14.5,52,0.2
	c0.1-0.1,0.2-0.2,0.2-0.2c7-6.8,10.9-16.3,10.8-26.1c0.2-9.8-3.7-19.3-10.7-26.1C327,290.7,317.5,286.8,307.6,286.9z M433.7,378.9
	c-14.6,0.2-28.7-5.6-38.9-16.2c-10.5-10.2-16.4-24.2-16.2-38.9c-0.2-14.7,5.6-28.8,16.2-39c21.5-21.5,56.3-21.5,77.8,0
	c10.5,10.2,16.3,24.3,16.1,39c0.2,14.6-5.6,28.7-16.1,38.9C462.4,373.3,448.3,379.1,433.7,378.9z M433.7,286.9
	c-9.9-0.2-19.4,3.7-26.2,10.8c-7.1,6.8-11,16.3-10.9,26.1c-0.1,9.8,3.8,19.3,10.9,26.1c14.3,14.4,37.6,14.5,52,0.2
	c0.1-0.1,0.2-0.2,0.2-0.2c7-6.8,10.9-16.3,10.8-26.1c0.1-9.8-3.8-19.3-10.8-26.1C452.8,290.7,443.4,286.8,433.7,286.9z M613.5,269
	c2,0.5,3.7,1.7,4.9,3.3c1.2,1.5,1.9,3.5,1.9,5.4v92.2c0,2.4-0.9,4.7-2.6,6.4c-3.5,3.5-9.3,3.6-12.8,0c0,0,0,0,0,0
	c-1.7-1.7-2.7-4-2.6-6.4v-59.7l-28.6,47.2l-0.3,0.5v0.3l-0.4,0.4l-0.9,0.6l-0.3,0.3l-0.4,0.4l-0.5,0.3l-0.5,0.3h-0.4
	c-1.2,0.5-2.4,0.7-3.7,0.7h-0.3c-0.7-0.1-1.4-0.2-2-0.4h-1.1l-0.6-0.3l-0.5-0.4l-2-0.6l-0.3-0.3l-0.3-0.3l-0.4-0.4
	c0-0.1,0-0.2,0-0.3l-0.4-0.5l-28.9-47.5v59.7c0,2.4-0.9,4.7-2.7,6.4c-1.6,1.7-3.9,2.6-6.2,2.6c-5-0.1-8.9-4.1-9-9v-92.1
	c0-2,0.6-3.9,1.9-5.4c1.2-1.6,2.9-2.8,4.9-3.3c1.9-0.5,3.9-0.4,5.7,0.3c1.9,0.7,3.4,2.1,4.5,3.8l37.7,62.3l37.7-62.3
	c0.9-1.7,2.3-3,4-3.8l2.8-1.1L613.5,269z"/>
</svg>
