<svg width="160" height="152" viewBox="0 0 160 152" fill="none" xmlns="http://www.w3.org/2000/svg">
    <path d="M50.96 129.895H29.8452C23.8852 129.895 19.0508 134.729 19.0508 140.689C19.0508 146.649 23.8852 151.483 29.8452 151.483H50.96C56.9201 151.483 61.7545 146.649 61.7545 140.689C61.7545 134.729 56.9201 129.895 50.96 129.895Z" fill="white"/>
    <path d="M105.143 0.511719C104.266 0.511719 38.8956 0.511719 38.8956 0.511719C32.9355 0.511719 28.1012 5.34608 28.1012 11.3061C28.1012 16.9936 32.509 21.6503 38.1017 22.0651H81.4452C87.4053 22.0651 92.2396 26.8994 92.2396 32.8594C92.2396 38.8195 87.4053 43.6538 81.4452 43.6538H52.2967H11.7377C5.77772 43.6538 0.943359 48.4882 0.943359 54.4482C0.943359 60.2424 5.51707 64.9582 11.252 65.2189H63.0793C69.0394 65.2189 73.8737 70.0533 73.8737 76.0133C73.8737 81.9733 69.0394 86.8078 63.0793 86.8078H46.0049C40.2582 87.0448 35.6608 91.7725 35.6608 97.5785C35.6608 103.539 40.4952 108.373 46.4552 108.373C46.4552 108.373 104.871 108.373 105.143 108.373C134.931 108.373 159.08 84.2247 159.08 54.4364C159.068 24.6599 134.931 0.511719 105.143 0.511719Z" fill="white"/>
</svg>
