<svg id="betterme" xmlns="http://www.w3.org/2000/svg" xmlns:xlink="http://www.w3.org/1999/xlink"  viewBox="0 0 124 50" fill="none"> <path d="M104.046 50H75.8036C69.7528 50 64.8499 45.1104 64.8499 39.0769V10.9134C64.8499 4.8895 69.7528 0 75.8036 0H104.046C110.097 0 115 4.8895 115 10.9231V39.0866C115 45.1104 110.097 50 104.046 50Z" fill="#DF4142"/> <path fill-rule="evenodd" clip-rule="evenodd" d="M89.9251 32.5736H87.1792V20.6823L82.0896 29.0727H81.7563L76.6667 20.6628V32.5736H73.9209V15.8906H76.8826L81.923 24.2321L86.993 15.8906H89.9251V32.5736ZM98.7801 30.52C96.8063 30.52 95.3488 29.52 94.9601 27.7232H104.458C104.537 27.2636 104.556 26.9115 104.556 26.6475C104.556 24.9069 103.988 23.4009 102.86 22.1883C101.732 20.9659 100.3 20.3498 98.5546 20.3498C96.7109 20.3498 95.1813 20.9464 94.0142 22.159C92.8476 23.352 92.2492 24.8286 92.2492 26.6182C92.2492 28.4371 92.8471 29.9332 94.0438 31.1263C95.2401 32.29 96.8188 32.8865 98.7509 32.8865C101.075 32.8865 102.82 32.026 103.988 30.2853L101.86 29.0434C101.173 30.0212 100.143 30.52 98.7801 30.52ZM102.134 25.611C101.771 23.6845 100.418 22.6772 98.7117 22.6772C96.7992 22.6772 95.4655 23.8018 95.103 25.611H102.134ZM108.038 32.8572C108.93 32.8572 109.675 32.114 109.675 31.2241C109.675 30.3342 108.94 29.591 108.038 29.591C107.096 29.591 106.4 30.3342 106.4 31.2241C106.4 32.114 107.145 32.8572 108.038 32.8572Z" fill="white"/> <path fill-rule="evenodd" clip-rule="evenodd" d="M9.84567 23.9191C10.9734 23.0879 11.5422 21.9633 11.5422 20.5161C11.5422 19.2057 11.0617 18.1104 10.1104 17.2303C9.17883 16.3502 8.01183 15.9004 6.64875 15.9004H0V32.5833H7.1685C8.58062 32.5833 9.74758 32.1335 10.7283 31.2241C11.7089 30.3146 12.1894 29.1705 12.1894 27.821C12.1894 26.0705 11.3068 24.6819 9.84567 23.9191ZM2.7458 18.4625H6.63896C7.85496 18.4625 8.78654 19.411 8.78654 20.653C8.78654 21.8949 7.85496 22.8435 6.63896 22.8435H2.7458V18.4625ZM7.1685 30.0017H2.7458V25.3273H7.1685C8.43354 25.3273 9.44358 26.3541 9.44358 27.6645C9.44358 28.9749 8.43354 30.0017 7.1685 30.0017ZM20.3483 20.3498C18.5047 20.3498 16.9749 20.9463 15.808 22.1589C14.641 23.352 14.0428 24.8286 14.0428 26.6181C14.0428 28.4273 14.641 29.9332 15.8374 31.1263C17.0338 32.29 18.6126 32.8865 20.5445 32.8865C22.8588 32.8865 24.6043 32.0259 25.7811 30.2853L23.6433 29.0433C22.947 30.0212 21.9272 30.52 20.5641 30.52C18.5832 30.52 17.122 29.5225 16.7396 27.7036H26.2518C26.3205 27.2538 26.3499 26.892 26.3499 26.6279C26.3499 24.8873 25.7811 23.3911 24.6534 22.1687C23.5256 20.9659 22.0939 20.3498 20.3483 20.3498ZM16.72 25.6109C17.0828 23.8018 18.4165 22.6772 20.3288 22.6772C22.0253 22.6772 23.3883 23.6747 23.7512 25.6109H16.72ZM36.1073 18.0811L38.6864 17.3183V20.6529H41.6479V23.1271H38.6864V28.8478C38.6864 30.3733 39.6866 30.3537 41.6479 30.2559V32.5638C37.7057 33.0429 36.1073 31.9673 36.1073 28.8478V23.1271H34.1754H33.9107H31.2139V28.8478C31.2139 30.3733 32.2141 30.3537 34.1754 30.2559V32.5638C30.2333 33.0429 28.6348 31.9673 28.6348 28.8478V23.1271V20.6529V18.0811L31.2139 17.3183V20.6529H33.9107H34.1754H36.1073V18.0811ZM49.9542 20.3498C48.1104 20.3498 46.5804 20.9463 45.4137 22.1589C44.2467 23.352 43.6483 24.8286 43.6483 26.6181C43.6483 28.4273 44.2467 29.9332 45.4429 31.1263C46.6396 32.29 48.2183 32.8865 50.15 32.8865C52.4646 32.8865 54.21 32.0259 55.3867 30.2853L53.2487 29.0433C52.5525 30.0212 51.5329 30.52 50.1696 30.52C48.1887 30.52 46.7275 29.5225 46.3454 27.7036H55.8575C55.9262 27.2538 55.9554 26.892 55.9554 26.6279C55.9554 24.8873 55.3867 23.3911 54.2592 22.1687C53.1312 20.9463 51.6996 20.3498 49.9542 20.3498ZM46.3254 25.6109C46.6883 23.8018 48.0221 22.6772 49.9342 22.6772C51.6308 22.6772 52.9942 23.6747 53.3567 25.6109H46.3254ZM61.1725 20.653V22.6576C61.8196 21.181 63.065 20.4476 64.85 20.4378V23.2248C63.8692 23.1564 63.0162 23.3911 62.2708 23.9387C61.5354 24.4668 61.1725 25.3469 61.1725 26.5595V32.5638H58.5933V20.653H61.1725Z" fill="#090A0A"/>                                               </svg>